<svg xmlns="http://www.w3.org/2000/svg" width="24" height="24" viewBox="0 0 496 512" fill="#ffffff" stroke="#ffffff" stroke-width="2" stroke-linecap="round" stroke-linejoin="round">
    <g>
        <path d="M373.228+56C336.041+56+290.884+101.781+285.728+167.563C284.634+181+302.603+186.156+309.009+174.594L323.853+148.031C335.884+126.625+353.853+114.281+373.072+114.281C392.291+114.281+410.259+126.625+422.291+148.031L437.134+174.594C443.541+186.156+461.509+180.844+460.416+167.563C455.572+101.781+410.416+56+373.228+56ZM59.1656+174.594L74.0094+148.031C86.0406+126.625+104.009+114.281+123.228+114.281C142.447+114.281+160.416+126.625+172.447+148.031L187.291+174.594C193.697+186.156+211.666+180.844+210.572+167.563C205.416+101.781+160.259+56+123.072+56C85.8844+56+40.7281+101.781+35.5719+167.563C34.6344+180.844+52.6031+186.156+59.1656+174.594ZM426.978+268.5L69.4781+268.5C56.6656+268.5+46.8219+279.438+48.3844+291.938C60.1031+384.438+140.416+456+237.603+456L258.853+456C356.041+456+436.353+384.438+448.072+291.938C449.634+279.438+439.791+268.5+426.978+268.5Z"/>
    </g>
</svg>